# xmcd
#
# Track frame offsets:
#	150
#	12784
#	34450
#	50760
#	68212
#	90940
#	111060
#	125730
#	144675
#	163700
#	179655
#	205950
#	233527
#	259005
#	282115
#
# Disc length: 4000 seconds
#
# Revision: 1
# Processed by: cddbd v1.5.1PL0 Copyright (c) Steve Scherf et al.
# Submitted via: audiograbber 1.83.01
#
DISCID=d80f9e0f
DTITLE=Gölä - III - Live 02
DYEAR=2002
DGENRE=Mundart
TTITLE0=Intro
TTITLE1=Nimm mi mit
TTITLE2=Verbotte
TTITLE3=Uf u dervo
TTITLE4=Finechli e Meite worde
TTITLE5=Indianer
TTITLE6=Wildi Ross
TTITLE7=Wet Dir so viu säge
TTITLE8=Nacht
TTITLE9=Z'toif u z'lut
TTITLE10=I hätt no viu blöder ta
TTITLE11=Gfüeu
TTITLE12=Schwan
TTITLE13=Zyt zum danke
TTITLE14=Aues wär so liecht
EXTD=
EXTT0=
EXTT1=
EXTT2=
EXTT3=
EXTT4=
EXTT5=
EXTT6=
EXTT7=
EXTT8=
EXTT9=
EXTT10=
EXTT11=
EXTT12=
EXTT13=
EXTT14=
PLAYORDER=
